<svg xmlns="http://www.w3.org/2000/svg" viewBox="0 0 200 200"><title>Joystick Slow</title><path d="M154.17,122.85H123.62c-1.23,0-1.09-.14-1.09,1.13q0,30.56,0,61.11a1.38,1.38,0,0,1-.86,1.41q-10.54,5.7-21,11.46a1.19,1.19,0,0,1-1.31,0q-10.47-5.73-21-11.41a1.5,1.5,0,0,1-.91-1.54q0-30.56,0-61.11c0-1,0-1-1-1q-30.6,0-61.19,0a1.38,1.38,0,0,1-1.42-.83Q8.12,111.46,2.34,100.92a1.07,1.07,0,0,1,0-1.17Q8.14,89.13,13.9,78.49a1.21,1.21,0,0,1,1.25-.71q30.6,0,61.19,0c1.29,0,1.13.16,1.13-1.16q0-30.56,0-61.11a1.32,1.32,0,0,1,.82-1.35Q88.85,8.45,99.39,2.67a1.13,1.13,0,0,1,1.24,0q10.51,5.75,21,11.45a1.44,1.44,0,0,1,.87,1.48q0,30.56,0,61.11c0,1.07,0,1.07,1.07,1.07q30.56,0,61.11,0a1.44,1.44,0,0,1,1.48.87q5.69,10.54,11.45,21a1.13,1.13,0,0,1,0,1.24q-5.77,10.54-11.5,21.11a1.32,1.32,0,0,1-1.35.82Q169.49,122.83,154.17,122.85ZM89,172.95l-0.11.18c0.22,0.19.44,0.37,0.65,0.57,3.28,3.28,6.57,6.55,9.82,9.84,0.47,0.47.71,0.55,1.22,0,3.31-3.36,6.65-6.68,10-10a3.22,3.22,0,0,1,.58-0.37l-0.17-.24c-1.53,0-3.07,0-4.6,0-0.67,0-.82-0.15-0.82-0.82,0-7,0-14.07,0-21.1,0-.64-0.11-0.84-0.8-0.84-3.2,0-6.39,0-9.59,0-0.75,0-.84.23-0.84,0.88,0,7,0,14.07,0,21.1,0,0.64-.17.79-0.78,0.77C92.1,172.92,90.56,172.95,89,172.95ZM111,27.69l0.12-.18c-0.18-.15-0.37-0.29-0.54-0.45-3.34-3.33-6.68-6.65-10-10-0.49-.5-0.72-0.42-1.16,0q-4.94,5-9.94,10a3.35,3.35,0,0,1-.66.41L89,27.69c1.53,0,3.07,0,4.6,0,0.66,0,.82.14,0.82,0.81,0,6.93,0,13.85,0,20.78,0,0.63.1,0.85,0.8,0.84,3.2,0,6.39,0,9.59,0,0.74,0,.84-0.22.84-0.88,0-6.93,0-13.85,0-20.78,0-.63.17-0.79,0.78-0.77C107.9,27.72,109.44,27.69,111,27.69Zm4.69,72.77A15.68,15.68,0,1,0,100,116.32,15.78,15.78,0,0,0,115.68,100.46Zm59.16-4.67c1.69,1.43,3.21,2.71,4.72,4,0.24,0.21.36,0.08,0.51-.09l3.34-3.91c-0.57,0-1,0-1.41,0a0.7,0.7,0,0,1-.83-0.61,15.11,15.11,0,1,0-14.74,19.89,14.62,14.62,0,0,0,10.93-4.2c0.35-.33.4-0.5,0-0.84a27.76,27.76,0,0,1-2.13-2.05c-0.42-.45-0.65-0.43-1.11,0a10.8,10.8,0,0,1-18-9.56A10.81,10.81,0,0,1,176.42,95c0.44,0.84.44,0.84-.54,0.84h-1ZM23,95.69a1,1,0,0,1,.2-0.68,10.89,10.89,0,0,1,12.07-5.54,10.3,10.3,0,0,1,8.26,8,10.16,10.16,0,0,1-3.44,10.71,10.94,10.94,0,0,1-13.89.37,0.53,0.53,0,0,0-.92.11,20.08,20.08,0,0,1-1.86,2.08c-0.59.55-.42,0.84,0.13,1.25a15.29,15.29,0,0,0,13,2.74A15.13,15.13,0,1,0,18.85,94.26c-0.6,1.44-.6,1.44-2.14,1.45a0.25,0.25,0,0,0-.32.15c1.07,1.27,2.17,2.56,3.24,3.86,0.29,0.35.45,0.08,0.63-.07,1.34-1.13,2.69-2.26,4-3.41a0.54,0.54,0,0,0,.38-0.55H23Z" style="fill:#030303"/><path d="M111.52,100.51A11.52,11.52,0,1,1,100,88.8,11.6,11.6,0,0,1,111.52,100.51Z" style="fill:#5abc70"/></svg>