<?xml version="1.0" encoding="utf-8"?>
<!-- Generator: Adobe Illustrator 19.2.1, SVG Export Plug-In . SVG Version: 6.00 Build 0)  -->
<svg version="1.1" id="Layer_1" xmlns="http://www.w3.org/2000/svg" xmlns:xlink="http://www.w3.org/1999/xlink" x="0px" y="0px"
	 viewBox="0 0 200 200" style="enable-background:new 0 0 200 200;" xml:space="preserve">
<style type="text/css">
	.st0{fill:#020202;}
	.st1{fill:#F0493A;}
</style>
<path class="st0" d="M100,197.8c-54,0.1-98-43.9-97.8-98.2c0.2-53.6,44-97.7,98.6-97.3c53.3,0.4,97.5,44.1,96.9,98.9
	C197.2,154.3,153.9,197.8,100,197.8z M137.7,100.2c0-20.8-16.9-37.8-37.6-37.9c-20.9,0-37.8,16.9-37.8,37.8
	C62.3,121,79.2,138,100,138C120.8,138,137.7,121.1,137.7,100.2z M32.2,45.5c2.6,2.6,5.2,5.2,7.7,7.7c0-0.9,0-1.9,0-2.9
	c0-0.5,0.1-0.7,0.7-0.7c3,0,6.1,0,9.1,0c0.7,0,1.5,0.1,2.2,0.4c2.5,0.9,3.9,3.1,3.9,6c0,4.9,0,9.8,0,14.7c0,0.8,0.2,1,1,1
	c2-0.1,4.1,0,6.1,0c0.6,0,0.8-0.1,0.8-0.8c0-4.9,0-9.8,0-14.8c0-0.8,0-1.6-0.1-2.4c-0.8-6.6-6.6-11.9-13.2-12c-3.2,0-6.3,0-9.5,0
	c-0.8,0-0.9-0.2-0.9-0.9c0.1-1,0-1.9,0-3C37.2,40.5,34.6,43,32.2,45.5z M39.9,161.2c0-1.1,0-2.1,0-3c0-0.6,0.1-0.9,0.8-0.9
	c1.8,0.1,3.6,0,5.3,0c2,0,3.9,0.1,5.9-0.2c6.3-0.9,11.5-6.5,11.6-12.9c0.1-5.3,0-10.6,0-16c0-0.4-0.2-0.5-0.5-0.5
	c-2.3,0-4.5,0-6.8,0c-0.5,0-0.6,0.2-0.6,0.6c0,1.6,0,3.3,0,5c0,3.5,0.1,7-0.1,10.5c-0.1,3.3-2.7,5.6-6,5.7c-3,0-6.1,0-9.1,0
	c-0.6,0-0.7-0.2-0.7-0.7c0-1,0-2,0-3.1c-2.7,2.7-5.2,5.2-7.8,7.8C34.6,156,37.2,158.5,39.9,161.2z M159.9,53.4c2.6-2.6,5-5,7.4-7.4
	c0.4-0.4,0.2-0.6-0.1-0.9c-2.3-2.2-4.5-4.5-6.8-6.8c-0.2-0.2-0.2-0.4-0.4-0.6c-0.1,0.1-0.2,0.1-0.2,0.2c0,0.9,0,1.9,0,2.8
	c0,0.7-0.1,0.9-0.8,0.9c-2.9-0.1-5.8,0-8.7,0c-8,0.1-13.9,6-14,14c0,5,0,10.1,0,15.1c0,0.6,0.1,0.9,0.8,0.8c2.1-0.1,4.2-0.1,6.2,0
	c0.7,0,0.8-0.2,0.8-0.9c0-5.1,0-10.2,0-15.3c0-3.2,2.3-5.7,5.4-5.9c3.3-0.1,6.5-0.1,9.8-0.1c0.5,0,0.4,0.3,0.4,0.6
	C159.9,51,159.9,52.1,159.9,53.4z M159.9,145.7c0,1.3,0,2.3,0,3.4c0,0.4-0.1,0.5-0.5,0.5c-3.1,0-6.1,0-9.2,0
	c-3.6-0.1-5.9-2.6-5.9-6.2c0-5,0-10,0-14.9c0-0.6-0.1-0.7-0.7-0.7c-2.2,0-4.3,0-6.5,0c-0.6,0-0.7,0.1-0.7,0.7c0,5,0,10,0,14.9
	c0,1.1,0.1,2.2,0.3,3.3c1.2,5.8,6.5,10.4,12.4,10.6c3.3,0.1,6.7,0.1,10.1,0.1c0.6,0,0.8,0.2,0.7,0.8c-0.1,1,0,2,0,3.2
	c2.6-2.6,5.1-5.1,7.6-7.5c0.2-0.2,0.2-0.4,0-0.6C165,150.8,162.5,148.3,159.9,145.7z M88.9,172.5c0.2,0.2,0.2,0.3,0.3,0.3
	c3.5,3.5,7,7,10.4,10.5c0.5,0.5,0.6,0.2,0.9-0.1c3.4-3.4,6.8-6.8,10.2-10.2c0.1-0.1,0.4-0.2,0.3-0.5c-1.5,0-3.1,0-4.6,0
	c-0.6,0-0.8-0.2-0.8-0.8c0-7.1,0-14.1,0-21.2c0-0.6-0.1-0.8-0.8-0.8c-3.2,0-6.4,0-9.6,0c-0.7,0-0.9,0.1-0.9,0.8c0,7,0,14,0,21.1
	c0,0.7-0.2,0.8-0.8,0.8C92.1,172.5,90.5,172.5,88.9,172.5z M111.1,27.5c-0.1-0.2-0.1-0.2-0.2-0.3c-3.5-3.5-7-7-10.5-10.5
	c-0.4-0.4-0.6-0.2-0.9,0.1c-3.4,3.4-6.8,6.8-10.2,10.2c-0.1,0.1-0.4,0.2-0.5,0.3c0.1,0.1,0.1,0.2,0.2,0.3c1.5,0,3,0,4.5,0
	c0.7,0,0.9,0.1,0.9,0.9c0,6.9,0,13.8,0,20.8c0,0.6,0.2,0.8,0.8,0.8c3.2,0,6.4,0,9.7,0c0.6,0,0.8-0.2,0.8-0.8c0-7,0-13.9,0-20.9
	c0-0.5,0.1-0.7,0.7-0.7C107.8,27.5,109.4,27.5,111.1,27.5z M23.3,95.5c0.1-0.3,0.2-0.4,0.3-0.6c2-4.1,6.6-6.6,11.2-5.9
	c4.2,0.7,7.2,3.1,8.6,7.1c1.4,4,0.6,7.8-2.4,10.9c-3.6,3.9-9.4,4.5-13.9,1.5c-0.5-0.3-0.7-0.3-1,0.2c-0.7,1-1.4,1.9-2.2,2.9
	c3.7,2.8,7.8,3.8,12.3,2.8c8.1-1.7,13.1-9.1,11.9-17.2c-1.3-8.4-9.8-14.2-18-12.3c-5.5,1.3-9.2,4.6-11.2,9.9
	c-0.2,0.5-0.4,0.7-0.9,0.6c-0.4,0-0.8,0-1.3,0c1.2,1.4,2.2,2.6,3.2,3.8c0.3,0.4,0.5,0.4,0.8,0.1c0.6-0.5,1.2-1,1.8-1.5
	c0.9-0.7,1.7-1.4,2.7-2.3C24.5,95.5,24,95.5,23.3,95.5z M183.3,95.5c-0.4,0-0.6,0-0.7,0c-1,0.2-1.4-0.3-1.7-1.2
	c-2.6-6.9-9.9-11-17-9.4c-6.3,1.4-10.4,5.3-11.8,11.7c-1.3,6.1,0.7,11.2,5.6,15.1c5,4,12.3,4.1,17.6,0.5c0.4-0.3,0.5-0.4,0.2-0.9
	c-0.6-0.7-1.2-1.5-1.7-2.3c-0.4-0.6-0.6-0.6-1.2-0.2c-3.9,2.3-7.9,2.4-11.6-0.1c-3.8-2.5-5.4-6.1-4.8-10.6c1-7.8,10-11.8,16.6-7.4
	c1.8,1.2,3.1,2.7,4,4.7c-0.6,0.1-1.2-0.1-1.8,0.2c1.5,1.3,3,2.5,4.5,3.8c0.3,0.2,0.4,0.2,0.6-0.1C181.1,98.1,182.1,96.9,183.3,95.5z
	"/>
<path class="st1" d="M68.1,100.2c0-17.7,14.3-32.1,31.9-32.1c17.6,0,32,14.4,32,32.1c0,17.7-14.3,32.1-31.9,32.1
	C82.4,132.3,68.1,117.9,68.1,100.2z"/>
</svg>
