<?xml version="1.0" encoding="utf-8"?>
<!-- Generator: Adobe Illustrator 19.2.1, SVG Export Plug-In . SVG Version: 6.00 Build 0)  -->
<svg version="1.1" id="Layer_1" xmlns="http://www.w3.org/2000/svg" xmlns:xlink="http://www.w3.org/1999/xlink" x="0px" y="0px"
	 viewBox="0 0 200 200" style="enable-background:new 0 0 200 200;" xml:space="preserve">
<style type="text/css">
	.st0{fill:#030303;}
	.st1{fill:#5ABC70;}
</style>
<path class="st0" d="M154.2,122.8c-10.2,0-20.4,0-30.6,0c-1.2,0-1.1-0.1-1.1,1.1c0,20.4,0,40.7,0,61.1c0,0.7-0.3,1.1-0.9,1.4
	c-7,3.8-14,7.6-21,11.5c-0.5,0.3-0.8,0.2-1.3,0c-7-3.8-14-7.6-21-11.4c-0.7-0.4-0.9-0.8-0.9-1.5c0-20.4,0-40.7,0-61.1c0-1,0-1-1-1
	c-20.4,0-40.8,0-61.2,0c-0.7,0-1.1-0.2-1.4-0.8c-3.8-7-7.6-14.1-11.5-21.1c-0.2-0.4-0.2-0.7,0-1.2c3.9-7.1,7.7-14.2,11.6-21.3
	c0.3-0.6,0.6-0.7,1.2-0.7c20.4,0,40.8,0,61.2,0c1.3,0,1.1,0.2,1.1-1.2c0-20.4,0-40.7,0-61.1c0-0.7,0.2-1,0.8-1.3
	c7-3.8,14.1-7.6,21.1-11.5c0.5-0.3,0.8-0.2,1.2,0c7,3.8,14,7.7,21,11.5c0.6,0.4,0.9,0.7,0.9,1.5c0,20.4,0,40.7,0,61.1
	c0,1.1,0,1.1,1.1,1.1c20.4,0,40.7,0,61.1,0c0.7,0,1.1,0.2,1.5,0.9c3.8,7,7.6,14,11.5,21c0.2,0.5,0.3,0.8,0,1.2
	c-3.8,7-7.7,14.1-11.5,21.1c-0.3,0.6-0.7,0.8-1.3,0.8C174.6,122.8,164.4,122.8,154.2,122.8z M89,172.9c0,0.1-0.1,0.1-0.1,0.2
	c0.2,0.2,0.4,0.4,0.6,0.6c3.3,3.3,6.6,6.5,9.8,9.8c0.5,0.5,0.7,0.6,1.2,0c3.3-3.4,6.7-6.7,10-10c0.2-0.2,0.4-0.2,0.6-0.4
	c-0.1-0.1-0.1-0.2-0.2-0.2c-1.5,0-3.1,0-4.6,0c-0.7,0-0.8-0.2-0.8-0.8c0-7,0-14.1,0-21.1c0-0.6-0.1-0.8-0.8-0.8c-3.2,0-6.4,0-9.6,0
	c-0.7,0-0.8,0.2-0.8,0.9c0,7,0,14.1,0,21.1c0,0.6-0.2,0.8-0.8,0.8C92.1,172.9,90.6,172.9,89,172.9z M111,27.7c0-0.1,0.1-0.1,0.1-0.2
	c-0.2-0.2-0.4-0.3-0.5-0.5c-3.3-3.3-6.7-6.7-10-10c-0.5-0.5-0.7-0.4-1.2,0c-3.3,3.3-6.6,6.6-9.9,10c-0.2,0.2-0.4,0.3-0.7,0.4
	c0.1,0.1,0.1,0.2,0.2,0.3c1.5,0,3.1,0,4.6,0c0.7,0,0.8,0.1,0.8,0.8c0,6.9,0,13.9,0,20.8c0,0.6,0.1,0.8,0.8,0.8c3.2,0,6.4,0,9.6,0
	c0.7,0,0.8-0.2,0.8-0.9c0-6.9,0-13.9,0-20.8c0-0.6,0.2-0.8,0.8-0.8C107.9,27.7,109.4,27.7,111,27.7z M115.7,100.5
	c0-8.7-7-15.8-15.6-15.8c-8.7,0-15.7,7.1-15.7,15.8c0,8.7,7,15.9,15.7,15.9C108.7,116.3,115.7,109.2,115.7,100.5z M174.8,95.8
	c1.7,1.4,3.2,2.7,4.7,4c0.2,0.2,0.4,0.1,0.5-0.1c1.1-1.3,2.2-2.5,3.3-3.9c-0.6,0-1,0-1.4,0c-0.5,0.1-0.7-0.2-0.8-0.6
	c-2.5-7.2-9.2-11.2-16.8-10.1c-8.3,1.2-14.1,9.8-12.3,18c1.6,7,7.2,11.7,14.4,12c4.2,0.2,7.9-1.3,10.9-4.2c0.3-0.3,0.4-0.5,0-0.8
	c-0.7-0.6-1.5-1.3-2.1-2.1c-0.4-0.4-0.7-0.4-1.1,0c-3.4,3.1-8.3,3.7-12.4,1.5c-4-2.1-6.3-6.6-5.6-11.1c0.7-4.6,4.3-8.3,9-9.1
	c4.4-0.8,9.1,1.6,11.2,5.6c0.4,0.8,0.4,0.8-0.5,0.8C175.6,95.8,175.3,95.8,174.8,95.8z M23,95.7c-0.1-0.3,0.1-0.5,0.2-0.7
	c2.3-4.3,7.2-6.6,12.1-5.5c4.3,1,7.2,3.7,8.3,8c1,4.2-0.2,7.9-3.4,10.7c-4,3.4-9.7,3.6-13.9,0.4c-0.4-0.3-0.6-0.3-0.9,0.1
	c-0.6,0.7-1.2,1.5-1.9,2.1c-0.6,0.6-0.4,0.8,0.1,1.2c3.9,2.9,8.3,3.8,13,2.7c7.4-1.7,12.6-9,11.6-16.5c-1-7.9-7.6-12.9-14.3-13.2
	c-6.6-0.3-12.5,3.3-15,9.3c-0.6,1.4-0.6,1.4-2.1,1.5c-0.1,0-0.2-0.1-0.3,0.2c1.1,1.3,2.2,2.6,3.2,3.9c0.3,0.4,0.4,0.1,0.6-0.1
	c1.3-1.1,2.7-2.3,4-3.4c0.2-0.1,0.5-0.2,0.4-0.6C24.1,95.7,23.6,95.7,23,95.7z"/>
<path class="st1" d="M111.5,100.5c0,6.4-5.2,11.7-11.5,11.7c-6.4,0-11.5-5.3-11.5-11.7c0-6.4,5.2-11.6,11.6-11.6
	C106.4,88.8,111.5,94.1,111.5,100.5z"/>
</svg>
