<svg xmlns="http://www.w3.org/2000/svg" viewBox="0 0 200 200"><title>Joystick Turbo</title><path d="M100,197.76a97.77,97.77,0,1,1,97.75-96.66A97.8,97.8,0,0,1,100,197.76Zm37.68-97.6A37.7,37.7,0,1,0,100,138,37.8,37.8,0,0,0,137.7,100.16ZM32.15,45.46l7.7,7.7c0-.89,0-1.9,0-2.91,0-.53.09-0.74,0.69-0.73,3,0,6.07,0,9.1,0a6.21,6.21,0,0,1,2.18.4,6,6,0,0,1,3.87,6c0,4.9,0,9.79,0,14.69,0,0.84.24,1,1,1,2-.05,4.1,0,6.15,0,0.6,0,.79-0.11.79-0.76,0-4.92,0-9.85,0-14.77a20,20,0,0,0-.13-2.39,13.78,13.78,0,0,0-13.21-12q-4.75-.06-9.5,0c-0.77,0-.93-0.24-0.89-0.94,0.05-1,0-1.91,0-3Zm7.7,115.77c0-1.09,0-2.07,0-3,0-.65.13-0.87,0.82-0.85,1.78,0.05,3.57,0,5.35,0a49.46,49.46,0,0,0,5.9-.15,13.78,13.78,0,0,0,11.65-12.94c0.12-5.32,0-10.64,0-16,0-.45-0.16-0.52-0.55-0.51-2.26,0-4.52,0-6.79,0-0.53,0-.6.19-0.59,0.64,0,1.65,0,3.3,0,5,0,3.49.08,7-.06,10.46a5.8,5.8,0,0,1-6,5.67c-3,0-6.07,0-9.1,0-0.6,0-.7-0.21-0.68-0.73,0-1,0-2,0-3.1l-7.78,7.77ZM159.9,53.37c2.58-2.58,5-5,7.44-7.43,0.4-.4.23-0.57-0.07-0.87q-3.4-3.37-6.77-6.77a2.91,2.91,0,0,1-.36-0.58l-0.24.19c0,0.95,0,1.9,0,2.85,0,0.67-.1.9-0.84,0.89-2.9-.05-5.8,0-8.7,0a13.67,13.67,0,0,0-14,14c0,5,0,10.06,0,15.09,0,0.63.1,0.86,0.8,0.84,2.07-.06,4.15-0.06,6.23,0,0.75,0,.84-0.23.84-0.88,0-5.11,0-10.22,0-15.33a5.7,5.7,0,0,1,5.41-5.87c3.27-.14,6.54-0.05,9.82-0.08,0.46,0,.43.26,0.43,0.56C159.9,51,159.9,52.1,159.9,53.37Zm0,92.33c0,1.26,0,2.32,0,3.38a0.43,0.43,0,0,1-.54.54c-3.06,0-6.12,0-9.18,0a5.82,5.82,0,0,1-5.95-6.19c0-5,0-10,0-14.93,0-.57-0.15-0.7-0.7-0.69q-3.23.05-6.47,0c-0.57,0-.69.14-0.69,0.7q0,7.46,0,14.93a16.24,16.24,0,0,0,.34,3.32,13.56,13.56,0,0,0,12.37,10.61c3.35,0.14,6.7.08,10.06,0.06,0.61,0,.77.16,0.74,0.75-0.05,1,0,2,0,3.18,2.6-2.6,5.08-5.08,7.56-7.55,0.24-.24.17-0.38,0-0.58Zm-71,26.83c0.16,0.18.22,0.26,0.28,0.33,3.48,3.48,7,7,10.43,10.45,0.46,0.46.64,0.18,0.93-.11L110.66,173a0.52,0.52,0,0,0,.31-0.51c-1.55,0-3.09,0-4.62,0-0.63,0-.77-0.16-0.77-0.78,0-7.05,0-14.1,0-21.15,0-.6-0.11-0.8-0.76-0.79q-4.79.06-9.58,0c-0.66,0-.88.1-0.88,0.84,0,7,0,14,0,21.07,0,0.68-.18.83-0.83,0.81C92.07,172.49,90.54,172.52,88.87,172.52Zm22.22-145a2.77,2.77,0,0,0-.2-0.28q-5.25-5.25-10.48-10.51c-0.4-.4-0.58-0.23-0.87.07q-5.07,5.09-10.16,10.16a2.37,2.37,0,0,1-.54.31L89,27.48c1.5,0,3,0,4.51,0,0.69,0,.92.11,0.92,0.88,0,6.92,0,13.83,0,20.75,0,0.64.18,0.77,0.78,0.77q4.83,0,9.66,0c0.63,0,.77-0.16.77-0.78,0-7,0-13.94,0-20.91,0-.54.11-0.72,0.68-0.71C107.83,27.51,109.39,27.48,111.09,27.48Zm-87.78,68c0.12-.27.19-0.44,0.27-0.61A10.69,10.69,0,0,1,34.79,89,10.79,10.79,0,0,1,41,107.09a10.67,10.67,0,0,1-13.87,1.49,0.59,0.59,0,0,0-1,.16c-0.7,1-1.45,1.89-2.2,2.87a14.64,14.64,0,0,0,12.26,2.84,15.08,15.08,0,1,0-6.12-29.53,14.81,14.81,0,0,0-11.18,9.94,0.75,0.75,0,0,1-.91.62c-0.4,0-.8,0-1.34,0,1.17,1.36,2.22,2.56,3.23,3.79,0.29,0.35.47,0.37,0.8,0.06,0.58-.54,1.22-1,1.83-1.55l2.69-2.29H23.31Zm160,0a4.56,4.56,0,0,0-.74,0c-1,.21-1.38-0.27-1.72-1.18a14.9,14.9,0,0,0-17-9.42c-6.29,1.42-10.4,5.32-11.75,11.67-1.3,6.1.69,11.23,5.57,15.12a15.07,15.07,0,0,0,17.56.53c0.39-.26.55-0.44,0.18-0.89a21.43,21.43,0,0,1-1.7-2.31c-0.35-.56-0.6-0.57-1.16-0.24a10.78,10.78,0,0,1-16.4-10.68,10.78,10.78,0,0,1,16.59-7.43,10.32,10.32,0,0,1,4,4.75,12.11,12.11,0,0,0-1.8.17c1.55,1.3,3,2.54,4.51,3.81a0.36,0.36,0,0,0,.63-0.06C181.05,98.09,182.12,96.85,183.3,95.48Z" style="fill:#020202"/><path d="M68.05,100.16a31.95,31.95,0,1,1,32,32.11A32.07,32.07,0,0,1,68.05,100.16Z" style="fill:#f0493a"/></svg>