<svg id="f5c6dc0b-9d4d-4d0e-a986-1827ba67af08" data-name="Layer 1" xmlns="http://www.w3.org/2000/svg" viewBox="0 0 328.2467 328.2466"><title>k9encoderMk2</title><path d="M447.2354,198.7651q0-5.1565-.3239-10.3054l-28.29,1.78q.2679,4.2576.2679,8.5256Z" transform="translate(-118.9887 -34.6418)"/><path d="M445.9412,178.195q-.6463-5.1159-1.6129-10.1835l-27.8439,5.3114q.7992,4.19,1.3343,8.4248Z" transform="translate(-118.9887 -34.6418)"/><path d="M442.0791,157.9493q-1.2824-4.9946-2.8765-9.9012l-26.9587,8.7594q1.3183,4.0572,2.38,8.1911Z" transform="translate(-118.9887 -34.6418)"/><path d="M435.71,138.3472q-1.8982-4.7943-4.0948-9.4624L405.967,140.9539q1.8164,3.86,3.3876,7.8283Z" transform="translate(-118.9887 -34.6418)"/><path d="M426.9344,119.698q-2.4841-4.5186-5.2485-8.8746l-23.9333,15.1885q2.2859,3.6019,4.342,7.342Z" transform="translate(-118.9887 -34.6418)"/><path d="M415.8906,102.2958q-3.0311-4.1718-6.3194-8.1469L387.73,112.2173q2.7192,3.287,5.228,6.74Z" transform="translate(-118.9887 -34.6418)"/><path d="M402.7528,86.415q-3.53-3.759-7.2906-7.2907L376.058,99.7876q3.11,2.92,6.0314,6.0315Z" transform="translate(-118.9887 -34.6418)"/><path d="M387.7282,72.3058q-3.9732-3.2868-8.1469-6.3193L362.92,88.9189q3.4512,2.5074,6.74,5.2279Z" transform="translate(-118.9887 -34.6418)"/><path d="M371.0537,60.1911q-4.3537-2.7628-8.8747-5.2484l-13.6558,24.84q3.7383,2.0552,7.3419,4.3419Z" transform="translate(-118.9887 -34.6418)"/><path d="M352.9923,50.2619q-4.6658-2.1957-9.4625-4.0949L333.095,72.5225q3.9663,1.57,7.8282,3.3876Z" transform="translate(-118.9887 -34.6418)"/><path d="M333.8289,42.6745q-4.9041-1.5934-9.9011-2.8765l-7.0493,27.4555q4.1319,1.0608,8.191,2.38Z" transform="translate(-118.9887 -34.6418)"/><path d="M313.8657,37.5488q-5.0652-.9661-10.1836-1.6129l-3.5527,28.1225q4.2324.5346,8.4247,1.3343Z" transform="translate(-118.9887 -34.6418)"/><path d="M293.4174,34.9656q-5.1464-.3239-10.3054-.3238V62.9877q4.266,0,8.5255.268Z" transform="translate(-118.9887 -34.6418)"/><path d="M272.8066,34.9656q-5.1462.3237-10.2647.97l3.5527,28.1225q4.2322-.5346,8.4919-.8027Z" transform="translate(-118.9887 -34.6418)"/><path d="M252.3584,37.5488q-5.0652.9661-10.0622,2.2491l7.0494,27.4556q4.1319-1.061,8.3243-1.8608Z" transform="translate(-118.9887 -34.6418)"/><path d="M232.3951,42.6745q-4.9041,1.5934-9.7009,3.4925l10.4349,26.3555q3.9663-1.57,8.0254-2.8894Z" transform="translate(-118.9887 -34.6418)"/><path d="M213.2317,50.2618q-4.6658,2.1955-9.1867,4.6809l13.6558,24.84q3.7383-2.0551,7.6-3.8725Z" transform="translate(-118.9887 -34.6418)"/><path d="M195.17,60.1911q-4.3538,2.763-8.5276,5.7954l16.6613,22.9324q3.4512-2.5075,7.0548-4.7945Z" transform="translate(-118.9887 -34.6418)"/><path d="M178.4959,72.3058q-3.9732,3.2869-7.734,6.8185L190.166,99.7876q3.11-2.92,6.3983-5.6408Z" transform="translate(-118.9887 -34.6418)"/><path d="M163.4713,86.4148q-3.53,3.759-6.8185,7.7341l21.841,18.0684q2.7192-3.2869,5.6408-6.3983Z" transform="translate(-118.9887 -34.6418)"/><path d="M150.3335,102.2957q-3.0309,4.1717-5.7954,8.5276l23.9333,15.1886q2.2859-3.6019,4.7945-7.0548Z" transform="translate(-118.9887 -34.6418)"/><path d="M139.29,119.698q-2.4842,4.5186-4.6809,9.1867l25.6482,12.0691q1.8163-3.86,3.8725-7.6Z" transform="translate(-118.9887 -34.6418)"/><path d="M130.514,138.3472q-1.8983,4.7943-3.4925,9.7009l26.9586,8.7594q1.3182-4.0571,2.8894-8.0255Z" transform="translate(-118.9887 -34.6418)"/><path d="M124.1449,157.9491q-1.2824,4.9946-2.2492,10.0622l27.844,5.3116q.7994-4.19,1.8607-8.3244Z" transform="translate(-118.9887 -34.6418)"/><path d="M120.2828,178.1949q-.6462,5.1158-.97,10.2647l28.29,1.78q.2679-4.2574.8027-8.4919Z" transform="translate(-118.9887 -34.6418)"/><path d="M118.9887,198.7649c.0024,2.2913.0747,6.0618.3238,10.3055l28.29-1.78c-.1076-1.781-.2347-4.4979-.2679-8.5256Z" transform="translate(-118.9887 -34.6418)"/><path d="M120.2828,219.3351q.6464,5.1159,1.6129,10.1835l27.8439-5.3115q-.7993-4.19-1.3343-8.4247Z" transform="translate(-118.9887 -34.6418)"/><path d="M124.1448,239.5807q1.2825,4.9946,2.8766,9.9011l26.9587-8.7593q-1.3183-4.0572-2.38-8.1911Z" transform="translate(-118.9887 -34.6418)"/><path d="M130.5139,259.1828q1.8982,4.7943,4.0948,9.4625l25.6482-12.0691q-1.8164-3.86-3.3875-7.8283Z" transform="translate(-118.9887 -34.6418)"/><path d="M139.29,277.832q2.4841,4.5186,5.2484,8.8747l23.9334-15.1886q-2.2859-3.6018-4.342-7.3419Z" transform="translate(-118.9887 -34.6418)"/><path d="M150.3333,295.2342q3.0309,4.1718,6.3194,8.1469l21.841-18.0684q-2.7192-3.2869-5.228-6.74Z" transform="translate(-118.9887 -34.6418)"/><path d="M163.4711,311.1151q3.53,3.759,7.2906,7.2906l19.4042-20.6633q-3.11-2.92-6.0314-6.0314Z" transform="translate(-118.9887 -34.6418)"/><path d="M178.4957,325.2242q3.9732,3.2868,8.1469,6.3194l16.6614-22.9324q-3.4512-2.5075-6.74-5.228Z" transform="translate(-118.9887 -34.6418)"/><path d="M195.17,337.3389q4.3538,2.763,8.8746,5.2485l13.6558-24.84q-3.7382-2.0551-7.3419-4.342Z" transform="translate(-118.9887 -34.6418)"/><path d="M213.2315,347.2682q4.6658,2.1957,9.4625,4.0948l10.4349-26.3554q-3.9663-1.57-7.8282-3.3876Z" transform="translate(-118.9887 -34.6418)"/><path d="M232.3949,354.8556q4.9041,1.5934,9.9011,2.8765l7.0494-27.4554q-4.1319-1.061-8.1911-2.38Z" transform="translate(-118.9887 -34.6418)"/><path d="M252.3581,359.9813q5.0652.9663,10.1836,1.613l3.5527-28.1225q-4.2323-.5347-8.4247-1.3344Z" transform="translate(-118.9887 -34.6418)"/><path d="M272.8065,362.5645q5.1463.3238,10.3054.3239v-28.346q-4.266,0-8.5256-.2679Z" transform="translate(-118.9887 -34.6418)"/><path d="M293.4172,362.5646q5.1463-.3238,10.2648-.97l-3.5527-28.1225q-4.2323.5346-8.4919.8027Z" transform="translate(-118.9887 -34.6418)"/><path d="M313.8655,359.9814q5.0652-.9663,10.0622-2.2492l-7.0494-27.4554q-4.1318,1.0608-8.3243,1.8606Z" transform="translate(-118.9887 -34.6418)"/><path d="M333.8289,354.8557q4.9041-1.5935,9.7009-3.4926l-10.4349-26.3554q-3.9663,1.57-8.0255,2.8893Z" transform="translate(-118.9887 -34.6418)"/><path d="M352.9923,347.2683q4.6658-2.1956,9.1867-4.6808l-13.6558-24.84q-3.7383,2.0551-7.6,3.8724Z" transform="translate(-118.9887 -34.6418)"/><path d="M371.0537,337.339q4.3538-2.763,8.5276-5.7953L362.92,308.6113q-3.4512,2.5074-7.0548,4.7944Z" transform="translate(-118.9887 -34.6418)"/><path d="M387.7282,325.2243q3.9732-3.2869,7.734-6.8185L376.058,297.7425q-3.11,2.92-6.3982,5.6408Z" transform="translate(-118.9887 -34.6418)"/><path d="M402.7528,311.1152q3.53-3.759,6.8185-7.734L387.73,285.3128q-2.7192,3.2869-5.6408,6.3982Z" transform="translate(-118.9887 -34.6418)"/><path d="M415.8906,295.2343q3.0309-4.1717,5.7954-8.5276l-23.9334-15.1885q-2.2857,3.6018-4.7944,7.0548Z" transform="translate(-118.9887 -34.6418)"/><path d="M426.9345,277.832q2.4841-4.5187,4.6808-9.1867l-25.6482-12.0692q-1.8164,3.86-3.8725,7.6Z" transform="translate(-118.9887 -34.6418)"/><path d="M435.71,259.1828q1.8982-4.7944,3.4925-9.701l-26.9586-8.7593q-1.3184,4.0571-2.8894,8.0254Z" transform="translate(-118.9887 -34.6418)"/><path d="M442.0792,239.5807q1.2823-4.9946,2.2491-10.0622l-27.8439-5.3114q-.7993,4.19-1.8607,8.3243Z" transform="translate(-118.9887 -34.6418)"/><path d="M445.9412,219.3349q.6463-5.1158.97-10.2647l-28.29-1.78q-.2677,4.2575-.8027,8.4919Z" transform="translate(-118.9887 -34.6418)"/></svg>